Coordinates
version=1
nRows=12
nColumns=24
inDegrees=yes

Units are S.I. units (second, meters, Newtons, ...)
If the header above contains a line with 'inDegrees', this indicates whether rotational values are in degrees (yes) or radians (no).

endheader
time	pelvis_tilt	pelvis_list	pelvis_rotation	pelvis_tx	pelvis_ty	pelvis_tz	hip_flexion_r	hip_adduction_r	hip_rotation_r	knee_angle_r	ankle_angle_r	subtalar_angle_r	mtp_angle_r	hip_flexion_l	hip_adduction_l	hip_rotation_l	knee_angle_l	ankle_angle_l	subtalar_angle_l	mtp_angle_l	lumbar_extension	lumbar_bending	lumbar_rotation
      0.50000000	      0.05258391	      2.60279122	      1.31907866	      0.59524380	      1.02535767	     -0.02754824	     23.80485957	     -7.76379457	     -8.37302598	    -19.59518959	      0.73739397	     -0.00000350	      0.00000000	     -9.50128462	      5.30651789	      1.62548592	     -2.08696085	      6.60145600	      0.00000023	      0.00000000	    -16.83360066	     -3.35431421	     -8.13731134
      0.51700000	     -0.08280246	      3.18557618	      1.45916232	      0.59395393	      1.02185918	     -0.02694033	     23.27801620	     -7.96687444	     -7.92571721	    -13.30081294	      0.41811168	     -0.00000291	      0.00000000	    -10.80647092	      5.80020460	      1.94703769	     -1.50473079	      7.05647329	      0.00000033	      0.00000000	    -16.75124253	     -3.83531541	     -8.36601255
      0.53300000	     -0.25029158	      3.75742159	      1.81458363	      0.59291883	      1.01798436	     -0.02660788	     22.75971574	     -8.30276812	     -7.14709931	     -7.65085162	      0.39343599	     -0.00000223	      0.00000000	    -11.98029880	      6.22629667	      2.53182146	     -1.17436343	      7.62707865	      0.00000037	      0.00000000	    -16.60424798	     -4.25464986	     -8.54618254
      0.55000000	     -0.32812315	      4.36805733	      1.76755987	      0.59249525	      1.01404013	     -0.02583444	     22.29964553	     -8.63722919	     -5.73505178	     -2.95037585	      0.59354152	     -0.00000158	      0.00000000	    -13.31028525	      6.75003194	      2.76741269	     -0.78910300	      8.11321846	      0.00000047	      0.00000000	    -16.49582897	     -4.68116993	     -8.61684918
      0.56700000	     -0.38758817	      4.83244878	      1.77714518	      0.59164733	      1.01016568	     -0.02519442	     22.21820991	     -8.96169415	     -4.35468810	      0.04867129	      1.07867614	     -0.00000144	      0.00000000	    -14.43494840	      7.10447516	      3.10882312	     -0.81561590	      8.74371268	      0.00000055	      0.00000000	    -16.45157237	     -4.95222356	     -8.47621991
      0.58300000	     -0.56830207	      5.13473879	      2.46299042	      0.58995711	      1.00670906	     -0.02515022	     22.37075989	     -9.39975251	     -4.00451569	      1.58358665	      1.36465390	     -0.00000109	      0.00000000	    -14.94947235	      7.12138113	      4.04039508	     -1.74733749	      9.64443327	      0.00000086	      0.00000000	    -16.53956610	     -4.79189432	     -8.80945236
      0.60000000	     -0.58229734	      5.15449580	      2.52010262	      0.59062181	      1.00401650	     -0.02329160	     22.62396133	     -9.24471357	     -3.48363266	      1.48824547	      1.55848025	     -0.00000112	      0.00000000	    -15.85320471	      6.88349362	      4.33600637	     -2.41183735	     10.26377619	      0.00000099	      0.00000000	    -16.37317119	     -4.60469920	     -8.63514236
      0.61700000	     -0.70203369	      4.90325937	      2.78169737	      0.59115361	      1.00168675	     -0.02089879	     23.30601631	     -8.84976875	     -3.44039392	     -0.24701413	      1.31705611	     -0.00000145	      0.00000000	    -16.28706898	      6.28412354	      4.70682744	     -3.70991674	     11.01333807	      0.00000133	      0.00000000	    -16.24698061	     -4.09918284	     -8.71014253
      0.63300000	     -0.77014631	      4.82957980	      3.31764824	      0.59201639	      1.00015640	     -0.01852967	     24.02384495	     -8.73690221	     -3.68387630	     -2.99548645	      0.66708711	     -0.00000176	      0.00000000	    -16.59293535	      5.77934517	      5.41231433	     -5.35684663	     11.53862835	      0.00000163	      0.00000000	    -16.19459734	     -3.72758732	     -8.99121294
      0.65000000	     -0.93404422	      4.64467750	      3.79756283	      0.59339367	      0.99886546	     -0.01552855	     24.87320957	     -8.49163405	     -4.00797100	     -6.24417584	     -0.31911855	     -0.00000213	      0.00000000	    -16.67768115	      5.17130468	      6.08340447	     -7.21789998	     11.87861069	      0.00000205	      0.00000000	    -15.93671184	     -3.31124103	     -9.33233815
      0.66700000	     -1.10821608	      4.53848816	      4.19120737	      0.59524726	      0.99823497	     -0.01300505	     25.61116436	     -8.36764236	     -4.19094894	     -9.47697436	     -1.39753910	     -0.00000231	      0.00000000	    -16.54635058	      4.75689562	      6.72151757	     -9.48954102	     11.89212009	      0.00000244	      0.00000000	    -15.59990724	     -2.80054051	     -9.46771598
      0.68300000	     -1.06241650	      4.44226101	      4.31747852	      0.59687965	      0.99834451	     -0.01012544	     26.28363239	     -8.17037563	     -4.06682707	    -13.10383990	     -1.96421316	     -0.00000248	      0.00000000	    -16.28780852	      4.46264382	      7.09356422	    -12.38839910	     11.58456393	      0.00000302	      0.00000000	    -15.44731187	     -2.31262641	     -9.31947907
